<?xml version="1.0" encoding="UTF-8"?>
<svg xmlns="http://www.w3.org/2000/svg" xmlns:xlink="http://www.w3.org/1999/xlink" version="1.1" id="Capa_1" x="0px" y="0px" viewBox="0 0 512 512" style="enable-background:new 0 0 512 512;" xml:space="preserve" width="512" height="512">
<g>
	<g>
		<path style="fill:#B6BCCF;" d="M477,502H35c-13.807,0-25-11.193-25-25V35c0-13.807,11.193-25,25-25h442c13.807,0,25,11.193,25,25&#10;&#9;&#9;&#9;v442C502,490.807,490.807,502,477,502z"/>
		<rect x="63.5" y="63.5" style="fill:#E7E9EF;" width="385" height="385"/>
		<path style="fill:#FFFFFF;" d="M148.071,232.642L248.929,333.5c3.905,3.905,10.237,3.905,14.142,0l100.858-100.858&#10;&#9;&#9;&#9;c6.3-6.3,1.838-17.071-7.071-17.071H155.142C146.233,215.571,141.771,226.342,148.071,232.642z"/>
	</g>
	<g>
		<path style="fill:none;stroke:#000000;stroke-width:20;stroke-linecap:round;stroke-linejoin:round;stroke-miterlimit:10;" d="&#10;&#9;&#9;&#9;M502,296v181c0,13.807-11.193,25-25,25H35c-13.807,0-25-11.193-25-25V35c0-13.807,11.193-25,25-25h442c13.807,0,25,11.193,25,25&#10;&#9;&#9;&#9;v181"/>
		
			<line style="fill:none;stroke:#000000;stroke-width:20;stroke-linecap:round;stroke-linejoin:round;stroke-miterlimit:10;" x1="501.987" y1="256" x2="501.987" y2="256"/>
		
			<rect x="63.5" y="63.5" style="fill:none;stroke:#000000;stroke-width:20;stroke-linecap:round;stroke-linejoin:round;stroke-miterlimit:10;" width="385" height="385"/>
		
			<line style="fill:none;stroke:#000000;stroke-width:20;stroke-linecap:round;stroke-linejoin:round;stroke-miterlimit:10;" x1="448.5" y1="63.5" x2="494.678" y2="17.322"/>
		
			<line style="fill:none;stroke:#000000;stroke-width:20;stroke-linecap:round;stroke-linejoin:round;stroke-miterlimit:10;" x1="63.5" y1="63.5" x2="17.322" y2="17.322"/>
		
			<line style="fill:none;stroke:#000000;stroke-width:20;stroke-linecap:round;stroke-linejoin:round;stroke-miterlimit:10;" x1="448.5" y1="448.5" x2="494.678" y2="494.678"/>
		
			<line style="fill:none;stroke:#000000;stroke-width:20;stroke-linecap:round;stroke-linejoin:round;stroke-miterlimit:10;" x1="63.5" y1="448.5" x2="17.322" y2="494.678"/>
		<path style="fill:none;stroke:#000000;stroke-width:20;stroke-linecap:round;stroke-linejoin:round;stroke-miterlimit:10;" d="&#10;&#9;&#9;&#9;M148.071,232.642L248.929,333.5c3.905,3.905,10.237,3.905,14.142,0l100.858-100.858c6.3-6.3,1.838-17.071-7.071-17.071H155.142&#10;&#9;&#9;&#9;C146.233,215.571,141.771,226.342,148.071,232.642z"/>
	</g>
</g>















</svg>
