<svg id="Layer_1" enable-background="new 0 0 24 24" viewBox="0 0 24 24" xmlns="http://www.w3.org/2000/svg"><g fill="white" stroke="currentColor" stroke-linecap="round" stroke-linejoin="round" stroke-miterlimit="10"><path d="m21 22.5h-18c-.8284271 0-1.5-.6715736-1.5-1.5v-18c0-.8284271.6715729-1.5 1.5-1.5h18c.8284264 0 1.5.6715729 1.5 1.5v18c0 .8284264-.6715736 1.5-1.5 1.5z"/><path id="XMLID_1393_" d="m9.5000019 10h-2v4h2"/><path id="XMLID_1387_" d="m7.5 12h1.5"/><path id="XMLID_1383_" d="m16.5000019 11c0-.5522842-.4477139-.999999-.999999-.999999h-.0000019c-.5522842 0-.999999.4477148-.999999.999999v2.0000019c0 .5522842.4477148.999999.999999.999999h.0000019c.5522852 0 .999999-.4477148.999999-.999999"/><path id="XMLID_1382_" d="m13.0000019 10.000001h-1.000001c-.5522842 0-.999999.4477148-.999999.999999v.0000019c0 .5522842.4477148.999999.999999.999999h.0000019c.5522842 0 .999999.4477148.999999.999999v.0000019c0 .5522842-.4477148.999999-.999999.999999h-1.000001"/></g><g/><g/><g/><g/><g/><g/><g/><g/><g/><g/><g/><g/><g/><g/><g/></svg>