<?xml version="1.0" encoding="UTF-8"?>
<svg xmlns="http://www.w3.org/2000/svg" xmlns:xlink="http://www.w3.org/1999/xlink" version="1.1" id="Capa_1" x="0px" y="0px" viewBox="0 0 512.013 512.013" style="enable-background:new 0 0 512.013 512.013;" xml:space="preserve" width="512" height="512">
<g>
	<g>
		<path style="fill:#B6BCCF;" d="M477.007,502.013h-442c-13.807,0-25-11.193-25-25v-442c0-13.807,11.193-25,25-25h442&#10;&#9;&#9;&#9;c13.807,0,25,11.193,25,25v442C502.007,490.82,490.814,502.013,477.007,502.013z"/>
		<rect x="63.507" y="63.513" style="fill:#E7E9EF;" width="385" height="385"/>
	</g>
	<g>
		
			<polyline style="fill:none;stroke:#000000;stroke-width:20;stroke-linecap:round;stroke-linejoin:round;stroke-miterlimit:10;" points="&#10;&#9;&#9;&#9;168.429,201.515 122.503,201.515 122.503,310.511 168.429,310.511 &#9;&#9;"/>
		
			<line style="fill:none;stroke:#000000;stroke-width:20;stroke-linecap:round;stroke-linejoin:round;stroke-miterlimit:10;" x1="165.043" y1="256.013" x2="122.503" y2="256.013"/>
		<path style="fill:none;stroke:#000000;stroke-width:20;stroke-linecap:round;stroke-linejoin:round;stroke-miterlimit:10;" d="&#10;&#9;&#9;&#9;M385.612,210.406c-8.778-5.93-19.36-9.393-30.751-9.393c-30.376,0-55,24.624-55,55c0,30.376,24.624,55,55,55&#10;&#9;&#9;&#9;c12.337,0,22.484-4.062,30.186-10.921c1.593-1.419,3.082-2.958,4.464-4.606"/>
		<path style="fill:none;stroke:#000000;stroke-width:20;stroke-linecap:round;stroke-linejoin:round;stroke-miterlimit:10;" d="&#10;&#9;&#9;&#9;M266.226,212.321c0,0-19.738-16.592-43.014-9.58c-21.372,6.438-24.362,31.082-8.9,41.163c0,0,15.173,6.769,32.001,12.976&#10;&#9;&#9;&#9;c40.509,14.942,23.06,54.133-9.552,54.133c-16.331,0-30.037-7.152-38.333-16.306"/>
		<path style="fill:none;stroke:#000000;stroke-width:20;stroke-linecap:round;stroke-linejoin:round;stroke-miterlimit:10;" d="&#10;&#9;&#9;&#9;M296.007,10.013h181c13.807,0,25,11.193,25,25v442c0,13.807-11.193,25-25,25h-442c-13.807,0-25-11.193-25-25v-442&#10;&#9;&#9;&#9;c0-13.807,11.193-25,25-25h181"/>
		
			<line style="fill:none;stroke:#000000;stroke-width:20;stroke-linecap:round;stroke-linejoin:round;stroke-miterlimit:10;" x1="256.007" y1="10" x2="256.007" y2="10"/>
		
			<rect x="63.507" y="63.513" style="fill:none;stroke:#000000;stroke-width:20;stroke-linecap:round;stroke-linejoin:round;stroke-miterlimit:10;" width="385" height="385"/>
		
			<line style="fill:none;stroke:#000000;stroke-width:20;stroke-linecap:round;stroke-linejoin:round;stroke-miterlimit:10;" x1="448.507" y1="63.513" x2="494.684" y2="17.336"/>
		
			<line style="fill:none;stroke:#000000;stroke-width:20;stroke-linecap:round;stroke-linejoin:round;stroke-miterlimit:10;" x1="63.507" y1="63.513" x2="17.329" y2="17.336"/>
		
			<line style="fill:none;stroke:#000000;stroke-width:20;stroke-linecap:round;stroke-linejoin:round;stroke-miterlimit:10;" x1="448.507" y1="448.513" x2="494.684" y2="494.691"/>
		
			<line style="fill:none;stroke:#000000;stroke-width:20;stroke-linecap:round;stroke-linejoin:round;stroke-miterlimit:10;" x1="63.507" y1="448.513" x2="17.329" y2="494.691"/>
	</g>
</g>















</svg>
