<svg id="Layer_1_5_" enable-background="new 0 0 48 48" viewBox="0 0 48 48" xmlns="http://www.w3.org/2000/svg"><circle cx="31" cy="21" fill="#a5a5a5" r="5"/><path d="m33.375 16.625c-.71-.386-1.51-.625-2.375-.625-2.761 0-5 2.239-5 5 0 .864.239 1.665.625 2.375 0 0 5.531-5.064 5.779-5.779s.971-.971.971-.971z" fill="#d6d6d6"/><path d="m18 38c-9 0-17-1-17-9s9-13 16-13c15 0 24 7 24 13s-5 9-17 9z" fill="#ccc"/><path d="m14.091 37.909s1.281-2.625 5.568-5.568c5.258-3.61 13.098-13.098 13.098-13.098-3.991-1.948-9.316-3.243-15.757-3.243-7 0-16 5-16 13 0 6.814 5.809 8.544 13.091 8.909z" fill="#efefef"/><path d="m21 16.193v10.807h19.66c-1.545-4.883-8.606-9.826-19.66-10.807z" fill="#ccc"/><path d="m32.743 19.257c-3.129-1.524-7.075-2.65-11.743-3.064v10.807h4s1.151-2.229 4.024-4.024c2.874-1.796 3.719-3.719 3.719-3.719z" fill="#efefef"/><path d="m36.555 20.453c.414-4.318-5.494-7.251-8.603-4.079-9.752-2.71-22.477-2.026-27.109 8.469-1.173 3.101-1.134 6.991 1.014 9.663 3.721 4.211 9.92 3.993 15.032 4.095 0 0 3.067-.054 3.067-.054 7.237-.059 20.895 1.216 21.888-8.836.4-3.855-2.393-7.131-5.289-9.258zm-6.045-3.571c1.803-.051 3.39.884 4.326 2.388-1.558-.954-3.232-1.706-4.97-2.305.216-.042.432-.074.644-.083zm-5.825 20.896c-2.313-.291-5.377-.415-7.786-.445-7.73-.118-17.848-1.519-14.311-11.797 2.899-6.679 11.101-9.283 17.909-8.409-.246 3.241-.366 6.482-.415 9.723-.009.531.426.965.957.957 6.229.093 12.66.068 18.876-.406 2.128 9.022-8.973 9.774-15.23 10.377zm-2.72-11.89c-.068-2.89-.19-5.779-.419-8.669 6.28.624 12.687 2.631 16.805 7.333.489.531.881 1.137 1.178 1.785-5.796-.441-11.746-.505-17.564-.449zm25.871-8.027c-.906 1.167-3.988 6.187-5.602 4.766-1.591-1.382-2.887-3.05-4.047-4.804-.252-.351-.024-1.222.728-.686 1.347.961 2.367 1.927 3.597 3.077-1.244-8.621-11.197-12.995-18.439-8.351-.756.492-1.274-.222-.605-.797 7.488-6.815 20.346-.997 20.068 9.126 1.227-1.128 2.246-2.056 3.573-3.017.605-.439.978.321.727.686z"/></svg>