<svg id="GUIDE_TO_DELETE" enable-background="new 0 0 128 128" height="512" viewBox="0 0 128 128" width="512" xmlns="http://www.w3.org/2000/svg"><g><path fill="currentColor" d="m119 50.88-2.85-.12c-2.44-.1-4.59-1.7-5.47-4.07-.43-1.16-.91-2.33-1.43-3.45-1.06-2.3-.67-4.96.98-6.76l1.93-2.1c2.56-2.79 2.47-7.07-.21-9.75l-8.59-8.59c-2.68-2.68-6.96-2.77-9.75-.21l-2.1 1.93c-1.8 1.66-4.46 2.04-6.76.98-1.13-.52-2.29-1-3.45-1.43-2.37-.88-3.96-3.02-4.07-5.47l-.11-2.84c-.16-3.78-3.25-6.75-7.04-6.75h-12.16c-3.79 0-6.88 2.96-7.04 6.75l-.12 2.85c-.1 2.44-1.7 4.59-4.07 5.47-1.16.43-2.33.91-3.45 1.43-2.3 1.06-4.96.67-6.76-.98l-2.1-1.93c-2.79-2.56-7.07-2.47-9.75.21l-8.59 8.59c-2.68 2.68-2.77 6.96-.21 9.75l1.93 2.1c1.66 1.8 2.04 4.45.98 6.76-.52 1.13-1 2.29-1.43 3.45-.88 2.37-3.02 3.96-5.47 4.07l-2.84.11c-3.78.16-6.75 3.25-6.75 7.04v12.15c0 3.79 2.96 6.88 6.75 7.04l2.85.12c2.44.1 4.59 1.7 5.47 4.07.44 1.17.92 2.34 1.43 3.45 1.06 2.3.67 4.96-.98 6.76l-1.93 2.1c-2.56 2.79-2.47 7.07.21 9.75l8.59 8.59c2.68 2.68 6.96 2.77 9.75.21l2.1-1.93c1.8-1.65 4.46-2.04 6.76-.98 1.13.52 2.29 1 3.45 1.43 2.37.88 3.96 3.02 4.07 5.47l.12 2.85c.16 3.78 3.25 6.75 7.04 6.75h12.15c3.79 0 6.88-2.96 7.04-6.75l.12-2.85c.1-2.44 1.7-4.59 4.07-5.47 1.16-.43 2.33-.91 3.45-1.43 2.3-1.06 4.96-.67 6.76.98l2.1 1.93c2.79 2.56 7.07 2.47 9.75-.21l8.59-8.59c2.68-2.68 2.77-6.96.21-9.75l-1.93-2.1c-1.66-1.8-2.04-4.45-.98-6.76.51-1.12 1-2.28 1.43-3.45.88-2.37 3.02-3.96 5.47-4.07l2.85-.12c3.78-.16 6.75-3.25 6.75-7.04v-12.15c-.01-3.78-2.97-6.88-6.76-7.04zm3.25 19.2c0 1.91-1.49 3.46-3.4 3.54l-2.85.12c-3.85.16-7.23 2.66-8.6 6.35-.41 1.09-.85 2.17-1.33 3.21-1.65 3.59-1.03 7.74 1.58 10.59l1.93 2.1c1.29 1.4 1.24 3.56-.1 4.91l-8.59 8.59c-1.35 1.35-3.5 1.39-4.91.1l-2.1-1.93c-2.84-2.61-7-3.23-10.59-1.59-1.05.48-2.13.93-3.21 1.33-3.69 1.37-6.19 4.74-6.35 8.6l-.12 2.85c-.08 1.9-1.64 3.4-3.54 3.4h-12.15c-1.91 0-3.46-1.49-3.54-3.4l-.12-2.85c-.16-3.85-2.65-7.23-6.35-8.6-1.08-.4-2.16-.85-3.21-1.33-1.33-.61-2.74-.91-4.14-.91-2.36 0-4.66.86-6.45 2.5l-2.1 1.93c-1.41 1.29-3.56 1.24-4.91-.1l-8.59-8.59c-1.35-1.35-1.39-3.5-.1-4.91l1.93-2.1c2.61-2.84 3.23-7 1.58-10.59-.48-1.04-.92-2.12-1.33-3.21-1.37-3.69-4.74-6.18-8.6-6.35l-2.85-.12c-1.9-.08-3.4-1.64-3.4-3.54v-12.16c0-1.91 1.49-3.46 3.4-3.54l2.85-.12c3.85-.16 7.23-2.66 8.6-6.35.4-1.08.85-2.16 1.33-3.21 1.65-3.59 1.03-7.74-1.58-10.59l-1.93-2.1c-1.29-1.4-1.24-3.56.1-4.91l8.59-8.59c1.35-1.35 3.5-1.39 4.91-.1l2.1 1.93c2.84 2.61 7 3.23 10.59 1.59 1.05-.48 2.13-.93 3.21-1.33 3.69-1.37 6.19-4.74 6.35-8.6l.12-2.85c.08-1.9 1.64-3.4 3.54-3.4h12.15c1.91 0 3.46 1.49 3.54 3.4l.12 2.85c.16 3.85 2.65 7.23 6.35 8.6 1.08.4 2.16.85 3.21 1.33 3.59 1.65 7.74 1.03 10.59-1.59l2.1-1.93c1.41-1.29 3.56-1.24 4.91.1l8.59 8.59c1.35 1.35 1.39 3.5.1 4.91l-1.93 2.1c-2.61 2.84-3.23 7-1.58 10.59.48 1.05.93 2.13 1.33 3.21 1.37 3.69 4.74 6.18 8.6 6.35l2.85.12c1.9.08 3.4 1.64 3.4 3.54z"/><path fill="currentColor" d="m64 31.84c-17.73 0-32.16 14.43-32.16 32.16s14.43 32.16 32.16 32.16 32.16-14.43 32.16-32.16-14.43-32.16-32.16-32.16zm0 60.82c-15.8 0-28.66-12.86-28.66-28.66s12.86-28.66 28.66-28.66 28.66 12.86 28.66 28.66-12.86 28.66-28.66 28.66z"/></g></svg>