<svg id="Слой_1" enable-background="new 0 0 512 512" height="512" viewBox="0 0 512 512" width="512" xmlns="http://www.w3.org/2000/svg"><g><path fill="currentColor" d="m455.109 208.593c-13.069 0-23.704 10.634-23.704 23.704v18.963c0 5.236-4.245 9.482-9.482 9.482-5.236 0-9.482-4.245-9.482-9.482v-42.667c0-13.069-10.634-23.704-23.704-23.704s-23.704 10.634-23.704 23.704v37.926c0 5.236-4.245 9.481-9.482 9.481-5.236 0-9.482-4.245-9.482-9.481v-56.889c0-13.069-10.634-23.704-23.704-23.704s-23.704 10.634-23.704 23.704v56.889c0 5.236-4.245 9.481-9.482 9.481-5.236 0-9.482-4.245-9.482-9.481v-175.408c0-13.069-10.634-23.704-23.704-23.704s-23.704 10.634-23.704 23.704v226.204c0 10.252-6.009 19.674-15.306 24-12.528 5.831-27.185 1.197-34.088-10.769l-28.454-49.273c-5.694-9.87-14.898-16.931-25.903-19.88-11.014-2.954-22.505-1.433-32.375 4.262-1.477.854-2.019 2.171-2.208 2.88-.19.708-.38 2.118.472 3.597l107.19 185.611c26.459 45.803 75.751 74.257 128.644 74.257 81.912 0 148.551-66.639 148.551-148.549v-131.155c.001-13.069-10.633-23.703-23.703-23.703z"/><path fill="currentColor" d="m255.998 28.445c23.528 0 42.667 19.141 42.667 42.667v56.889c17.639-13.266 28.445-34.275 28.445-56.89-.001-39.21-31.899-71.111-71.112-71.111s-71.111 31.901-71.111 71.111c0 22.615 10.806 43.623 28.445 56.89v-56.89c-.001-23.525 19.138-42.666 42.666-42.666z"/><path fill="currentColor" d="m33.908 67.485c-.129.311-.203.636-.297.957-.08.271-.185.531-.241.812-.244 1.226-.244 2.488 0 3.713.056.281.161.541.241.812.094.321.168.646.297.957.132.319.313.608.478.908.132.241.238.492.393.724.349.522.745 1.01 1.188 1.452l45.031 45.031c1.852 1.852 4.278 2.778 6.704 2.778s4.852-.926 6.704-2.778c3.704-3.701 3.704-9.706 0-13.407l-28.852-28.851h90.889c5.236 0 9.482-4.245 9.482-9.482s-4.245-9.482-9.482-9.482h-90.889l28.852-28.852c3.704-3.701 3.704-9.706 0-13.407-3.704-3.704-9.704-3.704-13.407 0l-45.032 45.031c-.443.442-.839.93-1.188 1.452-.155.231-.261.482-.393.724-.164.3-.346.589-.478.908z"/><path fill="currentColor" d="m417.591 122.852c1.852 1.852 4.278 2.778 6.704 2.778s4.852-.926 6.704-2.778l45.031-45.031c.443-.442.839-.93 1.188-1.452.155-.231.261-.482.393-.724.165-.3.346-.589.478-.908.129-.311.203-.636.297-.957.08-.271.185-.531.241-.812.244-1.226.244-2.488 0-3.713-.056-.281-.161-.541-.241-.812-.094-.321-.168-.646-.297-.957-.132-.319-.313-.608-.478-.908-.132-.241-.238-.492-.393-.724-.349-.522-.745-1.01-1.188-1.452l-45.032-45.032c-3.704-3.704-9.704-3.704-13.407 0-3.704 3.701-3.704 9.706 0 13.407l28.852 28.852h-90.889c-5.236 0-9.482 4.245-9.482 9.482s4.245 9.482 9.482 9.482h90.889l-28.852 28.852c-3.704 3.701-3.704 9.706 0 13.407z"/></g></svg>