<svg id="Слой_1" enable-background="new 0 0 512 512" height="512" viewBox="0 0 512 512" width="512" xmlns="http://www.w3.org/2000/svg"><g><path fill="currentColor" d="m469.773 174.185c-14.552 0-26.392 11.84-26.392 26.392v21.113c0 5.83-4.727 10.557-10.557 10.557s-10.557-4.727-10.557-10.557v-47.505c0-14.552-11.84-26.392-26.392-26.392s-26.392 11.84-26.392 26.392v47.505c0 5.83-4.727 10.557-10.557 10.557s-10.557-4.727-10.557-10.557v-68.619c0-14.552-11.84-26.392-26.392-26.392s-26.392 11.84-26.392 26.392v68.619c0 5.83-4.727 10.557-10.557 10.557s-10.557-4.727-10.557-10.557v-195.298c.003-14.552-11.837-26.392-26.389-26.392s-26.392 11.84-26.392 26.392v232.371c0 17.794-9.918 33.984-25.887 42.258l-.655.34c-19 10.196-41.763 7.026-56.67-7.881l-34.335-34.335c-9.969-9.969-23.227-15.459-37.325-15.459s-27.356 5.49-37.325 15.459c-2.057 2.057-2.057 5.407 0 7.464l199.567 199.567c29.553 29.551 68.847 45.824 110.641 45.824 86.273 0 156.464-70.191 156.464-156.464v-154.959c0-14.551-11.84-26.392-26.392-26.392z"/><path fill="currentColor" d="m16.642 194.056c.15.363.356.692.544 1.033.144.261.258.533.425.783.774 1.159 1.77 2.155 2.928 2.928.251.168.523.282.783.425.341.188.67.394 1.033.544.343.142.7.223 1.054.327.305.091.598.208.915.271.682.136 1.374.208 2.067.208h70.912c5.83 0 10.557-4.727 10.557-10.557s-4.727-10.557-10.557-10.557h-45.426l101.196-101.193v48.412c0 5.83 4.727 10.557 10.557 10.557s10.557-4.727 10.557-10.557v-73.897c0-.693-.073-1.385-.208-2.067-.063-.317-.181-.609-.271-.915-.104-.353-.185-.711-.327-1.054-.15-.363-.356-.692-.544-1.033-.144-.261-.258-.533-.425-.783-.774-1.159-1.77-2.155-2.928-2.928-.251-.168-.523-.282-.783-.425-.341-.188-.67-.394-1.033-.544-.343-.142-.7-.223-1.054-.327-.305-.091-.598-.208-.915-.271-.682-.136-1.374-.208-2.067-.208h-73.9c-5.83 0-10.557 4.727-10.557 10.557s4.727 10.555 10.557 10.555h48.412l-101.195 101.196v-45.428c0-5.83-4.727-10.557-10.557-10.557s-10.557 4.727-10.557 10.557v70.912c0 .693.073 1.384.208 2.067.063.317.181.609.271.915.105.354.186.711.328 1.054z"/></g></svg>