<svg id="_x31__x2C_5" enable-background="new 0 0 24 24" height="512" viewBox="0 0 24 24" width="512" ><g><path fill="currentColor" d="m23.25 22c-.414 0-.75-.336-.75-.75v-18.5c0-.689-.561-1.25-1.25-1.25h-18.5c-.689 0-1.25.561-1.25 1.25v12.5c0 .414-.336.75-.75.75s-.75-.336-.75-.75v-12.5c0-1.517 1.233-2.75 2.75-2.75h18.5c1.517 0 2.75 1.233 2.75 2.75v18.5c0 .414-.336.75-.75.75z"/></g><g><path fill="currentColor" d="m23.25 5h-22.5c-.414 0-.75-.336-.75-.75s.336-.75.75-.75h22.5c.414 0 .75.336.75.75s-.336.75-.75.75z"/></g><g><path fill="currentColor" d="m8.25 21.23c-.414 0-.75-.336-.75-.75v-10.23c0-1.241 1.01-2.25 2.25-2.25s2.25 1.009 2.25 2.25v6c0 .414-.336.75-.75.75s-.75-.336-.75-.75v-6c0-.414-.337-.75-.75-.75s-.75.336-.75.75v10.23c0 .414-.336.75-.75.75z"/></g><g><path fill="currentColor" d="m11.25 19.5c-.414 0-.75-.336-.75-.75v-2.5c0-1.241 1.01-2.25 2.25-2.25s2.25 1.009 2.25 2.25v1c0 .414-.336.75-.75.75s-.75-.336-.75-.75v-1c0-.414-.337-.75-.75-.75s-.75.336-.75.75v2.5c0 .414-.336.75-.75.75z"/></g><g><path fill="currentColor" d="m14.25 20.5c-.414 0-.75-.336-.75-.75v-2.5c0-1.241 1.01-2.25 2.25-2.25s2.25 1.009 2.25 2.25v2c0 .414-.336.75-.75.75s-.75-.336-.75-.75v-2c0-.414-.337-.75-.75-.75s-.75.336-.75.75v2.5c0 .414-.336.75-.75.75z"/></g><g><path fill="currentColor" d="m20.25 24c-.414 0-.75-.336-.75-.75v-4c0-.414-.337-.75-.75-.75s-.75.336-.75.75v1.5c0 .414-.336.75-.75.75s-.75-.336-.75-.75v-1.5c0-1.241 1.01-2.25 2.25-2.25s2.25 1.009 2.25 2.25v4c0 .414-.336.75-.75.75z"/></g><g><path fill="currentColor" d="m5.36 24c-.29 0-.566-.169-.688-.453-.709-1.645-1.348-2.238-1.814-2.671-.422-.392-.858-.796-.858-1.626 0-.292.133-1.75 2.75-1.75 1.838 0 3.245 1.377 4.103 2.533.247.333.177.802-.156 1.049-.331.247-.801.176-1.049-.156-.534-.719-1.62-1.926-2.898-1.926-1.045 0-1.257.288-1.258.291.008.111.008.134.386.485.532.494 1.337 1.241 2.171 3.177.164.38-.012.822-.392.986-.096.041-.197.061-.297.061z"/></g></svg>