<svg id="Line" viewBox="0 0 64 64" xmlns="http://www.w3.org/2000/svg"><g fill="rgb(0,0,0)"><path fill="currentColor" d="m12.63683 33.5h-.27295c-4.8877 0-8.86377-3.97607-8.86377-8.86377 0-.82861.67139-1.5 1.5-1.5h15c.82861 0 1.5.67139 1.5 1.5 0 4.8877-3.97607 8.86377-8.86328 8.86377zm-5.94238-7.36377c.66455 2.50928 2.95459 4.36377 5.66943 4.36377h.27295c2.71484 0 5.00439-1.85449 5.66895-4.36377z"/><path fill="currentColor" d="m4.99865 26.13672c-.24414 0-.49219-.06006-.72119-.18604-.72607-.39941-.99072-1.31152-.5918-2.03711l7.49951-13.63623c.26367-.47949.76758-.77734 1.31445-.77734s1.05078.29785 1.31445.77686l7.50049 13.63623c.39893.72607.13428 1.63818-.59131 2.0376-.72852.39795-1.6377.13428-2.0376-.59131l-6.18604-11.24707-6.18506 11.24658c-.27344.49658-.78662.77783-1.31592.77783z"/><path fill="currentColor" d="m45.63683 33.5h-.27295c-4.8877 0-8.86377-3.97607-8.86377-8.86377 0-.82861.67139-1.5 1.5-1.5h15c.82861 0 1.5.67139 1.5 1.5 0 4.8877-3.97607 8.86377-8.86328 8.86377zm-5.94238-7.36377c.66455 2.50928 2.95459 4.36377 5.66943 4.36377h.27295c2.71484 0 5.00439-1.85449 5.66895-4.36377z"/><path fill="currentColor" d="m53.00158 26.13672c-.5293 0-1.04248-.28125-1.31592-.77783l-6.18457-11.24658-6.18652 11.24707c-.39941.72559-1.31104.98926-2.0376.59131-.72559-.39941-.99023-1.31152-.59131-2.0376l7.50098-13.63623c.26367-.479.76758-.77686 1.31445-.77686.54688 0 1.05078.29785 1.31445.77734l7.49902 13.63623c.39893.72559.13428 1.6377-.5918 2.03711-.229.12598-.47705.18604-.72119.18604z"/><path fill="currentColor" d="m25.85021 12.5h-16.8501c-.82861 0-1.5-.67139-1.5-1.5s.67139-1.5 1.5-1.5h16.8501c.82861 0 1.5.67139 1.5 1.5s-.67139 1.5-1.5 1.5z"/><path fill="currentColor" d="m49.00011 12.5h-16.84961c-.82861 0-1.5-.67139-1.5-1.5s.67139-1.5 1.5-1.5h16.84961c.82861 0 1.5.67139 1.5 1.5s-.67139 1.5-1.5 1.5z"/><path fill="currentColor" d="m15.00158 57.50049c-.09717 0-.19629-.00977-.29541-.02979-.8125-.16211-1.33936-.95264-1.17676-1.76465l2-10c.14014-.70117.75586-1.20605 1.4707-1.20605h20c.82861 0 1.5.67139 1.5 1.5s-.67139 1.5-1.5 1.5h-18.77051l-1.75879 8.79395c-.14258.71338-.76855 1.20654-1.46924 1.20654z"/><path fill="currentColor" d="m5.00011 57.50049c-.82861 0-1.5-.67139-1.5-1.5s.67139-1.5 1.5-1.5l26-.00049c.82861 0 1.5.67139 1.5 1.5s-.67139 1.5-1.5 1.5z"/><path fill="currentColor" d="m25.0006 47.5c-.01221 0-.02441 0-.03711-.00049-.82812-.02002-1.48291-.70801-1.46289-1.53613l.92334-37.92432c.06396-2.5459 2.07422-4.53906 4.57617-4.53906 2.50244 0 4.5127 1.99316 4.57666 4.53809l.92285 37.92529c.02002.82812-.63477 1.51611-1.46289 1.53613-.86914.02051-1.51611-.63525-1.53613-1.46289l-.92285-37.92432c-.02295-.90381-.71582-1.6123-1.57764-1.6123s-1.5542.7085-1.57715 1.61328l-.92334 37.92334c-.02002.81543-.6875 1.46338-1.49902 1.46338z"/><path fill="currentColor" d="m57.00011 60.5h-18c-1.92969 0-3.5-1.57031-3.5-3.5v-13c0-1.92969 1.57031-3.5 3.5-3.5h18c1.92969 0 3.5 1.57031 3.5 3.5v13c0 1.92969-1.57031 3.5-3.5 3.5zm-18-17c-.27588 0-.5.22412-.5.5v13c0 .27588.22412.5.5.5h18c.27588 0 .5-.22412.5-.5v-13c0-.27588-.22412-.5-.5-.5z"/><path fill="currentColor" d="m54.00011 43.5c-.82861 0-1.5-.67139-1.5-1.5v-3c0-.81299-.49072-1.5-1.07129-1.5h-6.85742c-.58057 0-1.07129.68701-1.07129 1.5v3c0 .82861-.67139 1.5-1.5 1.5s-1.5-.67139-1.5-1.5v-3c0-2.48145 1.82617-4.5 4.07129-4.5h6.85742c2.24512 0 4.07129 2.01855 4.07129 4.5v3c0 .82861-.67139 1.5-1.5 1.5z"/><path fill="currentColor" d="m42.00011 54.5c-.82861 0-1.5-.67139-1.5-1.5v-4c0-.82861.67139-1.5 1.5-1.5s1.5.67139 1.5 1.5v4c0 .82861-.67139 1.5-1.5 1.5z"/><path fill="currentColor" fill="currentColor" d="m54.00011 54.5c-.82861 0-1.5-.67139-1.5-1.5v-4c0-.82861.67139-1.5 1.5-1.5s1.5.67139 1.5 1.5v4c0 .82861-.67139 1.5-1.5 1.5z"/><path fill="currentColor" d="m59.00011 50.5h-22c-.82861 0-1.5-.67139-1.5-1.5s.67139-1.5 1.5-1.5h22c.82861 0 1.5.67139 1.5 1.5s-.67139 1.5-1.5 1.5z"/></g></svg>