<svg id="Capa_1" enable-background="new 0 0 512 512" height="512" viewBox="0 0 512 512" width="512" xmlns="http://www.w3.org/2000/svg"><path fill="currentColor" d="m507.601 350.834-77.914-77.815 49.229-48.989c17.465-17.459 17.46-45.71-.015-63.162-5.686-5.679-12.538-9.492-19.794-11.463 5.065-25.178-11.634-46.705-32.429-52.366 5.42-26.962-14.798-52.142-41.17-53.979-.507-10.775-4.722-21.123-13.487-29.887-17.264-17.241-44.651-17.603-62.352-.821l.025.027c-.837.737-.3.239-16.467 16.355l-10.754-10.821c-23.279-23.356-62.97-14.637-74.365 15.806-15.704-6.039-34.734-3.09-48.013 10.224-5.73 5.745-9.568 12.671-11.539 19.998-27.439-5.565-52.518 15.05-54.038 41.575-32.173 1.87-52.724 36.864-37.354 65.847-29.281 12.453-36.306 50.413-14.085 72.627l29.136 29.125-67.816 67.73c-5.861 5.853-5.866 15.349-.011 21.209 5.853 5.858 15.35 5.867 21.213.011l68.574-68.487c7.305 4.663 15.686 7.006 24.073 7.005 23.703-.001 43.23-18.383 44.602-41.96 23.051-1.281 41.268-20.017 42.55-42.384 22.717-1.322 41.113-19.747 42.458-42.378 10.945-.642 21.144-5.205 28.956-13.024 17.632-17.651 17.616-46.355-.039-63.986l-4.692-4.685c22.118-22.053 55.992-55.823 58.328-58.145 5.804-5.406 14.705-5.27 20.355.32.084.086.412.423.492.501 5.741 5.734 5.737 15-.001 20.737l-33.24 33.206c-5.86 5.854-5.864 15.35-.009 21.209 5.852 5.857 15.351 5.866 21.213.009 34.186-34.151-.628.738 33.208-33.053 5.602-5.2 14.546-5.574 20.712.721.039.039.077.078.116.117 5.741 5.734 5.737 15.001-.001 20.738-7.273 7.266-26.84 26.812-33.24 33.206-5.86 5.854-5.864 15.35-.009 21.209 5.852 5.857 15.351 5.866 21.213.009l23.266-23.242c5.347-5.323 14.405-6.134 20.907.15 6.354 6.201 5.809 15.513.312 21.003l-24.29 24.177c-5.871 5.844-5.892 15.339-.047 21.209 5.843 5.868 15.341 5.892 21.213.047 7.455-7.421 9.815-9.685 14.307-14.198 5.74-5.732 15.074-5.735 20.809-.007 5.765 5.757 5.703 15.034.029 20.706l-134.475 133.823c-16.923 16.84-41.061 24.34-64.563 20.059-4.844-.882-9.807.667-13.289 4.144l-125.731 125.572c-5.861 5.853-5.866 15.349-.011 21.209 5.852 5.857 15.349 5.867 21.213.011l111.134-110.993 110.836 110.564c5.856 5.842 15.353 5.848 21.213-.024 5.851-5.864 5.84-15.359-.024-21.209l-99.182-98.939c22.248-2.852 43.276-12.924 59.567-29.135l64.01-63.698 77.975 77.876c5.859 5.852 15.356 5.85 21.213-.011 5.855-5.861 5.85-15.357-.011-21.21zm-379-84.466c-5.728 5.68-15.033 5.665-20.733-.025l-43.577-43.563c-5.688-5.686-5.775-14.931.031-20.731 5.697-5.689 14.963-5.734 20.713-.062 30.448 30.409 33.221 33.305 43.583 43.613 5.767 5.736 5.76 15.04-.017 20.768zm42.586-42.381-.446.445c-5.729 5.723-15.052 5.723-20.783 0-7.89-7.88-59.579-59.502-63.656-63.575-5.736-5.73-5.726-14.99-.006-20.705l.453-.451c5.449-5.442 14.686-6.088 21.007.225 7.057 7.063 38.617 38.568 63.431 63.35 5.732 5.727 5.732 14.985 0 20.711zm42.499-42.445-.516.515c-5.729 5.723-15.052 5.723-20.782 0l-63.656-63.575c-5.732-5.726-5.733-14.984 0-20.71l.473-.472c5.717-5.71 15.034-5.727 20.761-.021 1.003 1 62.168 62.223 64.518 64.446 4.885 5.746 4.622 14.403-.798 19.817zm41.902-41.899c-5.444 5.449-14.073 5.739-19.861.858 0 0-54.961-54.869-54.965-54.873-5.216-5.866-5.036-14.877.578-20.506 5.804-5.819 15.277-5.924 21.189-.021.678.678 53.046 52.973 53.046 52.973 5.951 5.944 5.957 15.619.013 21.569zm-16.528-80.453c-5.254-5.832-4.992-14.673.529-20.169 5.971-5.942 15.675-5.914 21.619.048l10.776 10.843-21.125 21.059z"/></svg>