<svg id="Layer_1" enable-background="new 0 0 100 100" viewBox="0 0 100 100" xmlns="http://www.w3.org/2000/svg"><g clip-rule="evenodd" fill="currentColor" fill-rule="evenodd"><path d="m2.5000012 31.9070396 40.5559337 31.5445214c4.0849991 3.1756973 9.8031311 3.1756973 13.8881302 0l40.5559349-31.5445214v45.2358208c0 1.8004837-.7147827 3.5263214-1.9882126 4.7975006-1.2712097 1.2734604-2.9970474 1.9882126-4.7975006 1.9882126-18.9253693 0-62.5032043 0-81.4285736 0-1.8004885 0-3.5263228-.7147522-4.7975054-1.9882126-1.2734609-1.2711792-1.9882095-2.9970169-1.9882095-4.7975006z"/><path d="m97.5 22.9046345c-.0135956 2.0379772-.9477539 4.0081024-2.6192627 5.308691l-40.7142868 31.6666641c-2.4519348 1.9067917-5.8809662 1.9067917-8.332901 0l-40.7142515-31.6666641c-1.6715443-1.3005886-2.6057332-3.2707138-2.6192968-5.308691v-.0474911c0-1.8004894.7147486-3.5263233 1.9882095-4.7975063 1.2711825-1.2734604 2.9970169-1.9882088 4.7975054-1.9882088h81.4285736c1.8004532 0 3.5262909.7147484 4.7975006 1.9882088 1.273427 1.271183 1.9882097 2.9970169 1.9882097 4.7975063z"/></g></svg>