<svg id="Layer_1" viewBox="0 0 512 512" xmlns="http://www.w3.org/2000/svg" data-name="Layer 1"><path d="m256 126.078a129.909 129.909 0 1 0 91.862 38.049 129.5 129.5 0 0 0 -91.862-38.049zm83.465 213.377a118 118 0 1 1 34.577-83.466 117.668 117.668 0 0 1 -34.577 83.466zm.842-41.691a90.264 90.264 0 1 1 -107.078-129.659 4.24 4.24 0 0 1 5.346 5.388c-21.4 63.472 32.641 126.754 97.439 118a4.243 4.243 0 0 1 4.293 6.271zm-90.242-197.635v-28.243a5.935 5.935 0 1 1 11.87 0v28.243a5.935 5.935 0 0 1 -11.87 0zm78.751 17.888 14.122-24.433a5.922 5.922 0 1 1 10.249 5.935l-14.122 24.433a5.922 5.922 0 1 1 -10.249-5.935zm57.054 63.01a5.942 5.942 0 0 1 2.167-8.1l24.455-14.127a5.931 5.931 0 0 1 5.935 10.27l-24.455 14.1a5.939 5.939 0 0 1 -8.102-2.143zm-227.056-81.508a5.922 5.922 0 1 1 10.249-5.935l14.121 24.433a5.922 5.922 0 1 1 -10.249 5.935zm287.245 156.47a5.946 5.946 0 0 1 -5.935 5.956h-28.242a5.945 5.945 0 1 1 0-11.89h28.242a5.941 5.941 0 0 1 5.935 5.934zm-92.872 156.492a5.922 5.922 0 1 1 -10.249 5.935l-14.122-24.433a5.927 5.927 0 0 1 10.249-5.956zm-261.76-251.489a5.9 5.9 0 0 1 8.06-2.189l24.455 14.121a5.911 5.911 0 1 1 -5.893 10.249l-24.449-14.1a5.916 5.916 0 0 1 -2.173-8.081zm329.146 190.037a5.891 5.891 0 0 1 -8.081 2.147l-24.455-14.1a5.922 5.922 0 1 1 5.935-10.249l24.455 14.1a5.934 5.934 0 0 1 2.146 8.102zm-158.638 60.842v28.243a5.935 5.935 0 1 1 -11.87 0v-28.243a5.935 5.935 0 0 1 11.87 0zm-161.795-149.926h-28.264a5.945 5.945 0 0 1 0-11.89h28.264a5.945 5.945 0 0 1 0 11.89zm83.044 132.038-14.121 24.433a5.922 5.922 0 1 1 -10.249-5.935l14.121-24.454a5.927 5.927 0 0 1 10.249 5.956zm-57.054-62.989a5.924 5.924 0 0 1 -2.188 8.082l-24.455 14.1a5.911 5.911 0 0 1 -5.887-10.249l24.454-14.1a5.916 5.916 0 0 1 8.076 2.167z" fill="currentColor"/></svg>