<svg id="visual" viewBox="0 0 960 540" width="960" height="540" xmlns="http://www.w3.org/2000/svg" xmlns:xlink="http://www.w3.org/1999/xlink" version="1.1"><path d="M0 479L22.8 474.3C45.7 469.7 91.3 460.3 137 461.8C182.7 463.3 228.3 475.7 274 478.5C319.7 481.3 365.3 474.7 411.2 475.2C457 475.7 503 483.3 548.8 483.2C594.7 483 640.3 475 686 468.5C731.7 462 777.3 457 823 457.8C868.7 458.7 914.3 465.3 937.2 468.7L960 472L960 541L937.2 541C914.3 541 868.7 541 823 541C777.3 541 731.7 541 686 541C640.3 541 594.7 541 548.8 541C503 541 457 541 411.2 541C365.3 541 319.7 541 274 541C228.3 541 182.7 541 137 541C91.3 541 45.7 541 22.8 541L0 541Z" fill="#fdd79b"></path><path d="M0 484L22.8 483.7C45.7 483.3 91.3 482.7 137 485.7C182.7 488.7 228.3 495.3 274 495.2C319.7 495 365.3 488 411.2 482.5C457 477 503 473 548.8 476.5C594.7 480 640.3 491 686 493C731.7 495 777.3 488 823 482.8C868.7 477.7 914.3 474.3 937.2 472.7L960 471L960 541L937.2 541C914.3 541 868.7 541 823 541C777.3 541 731.7 541 686 541C640.3 541 594.7 541 548.8 541C503 541 457 541 411.2 541C365.3 541 319.7 541 274 541C228.3 541 182.7 541 137 541C91.3 541 45.7 541 22.8 541L0 541Z" fill="#f9c479"></path><path d="M0 499L22.8 501.2C45.7 503.3 91.3 507.7 137 506.5C182.7 505.3 228.3 498.7 274 497.5C319.7 496.3 365.3 500.7 411.2 502C457 503.3 503 501.7 548.8 503.2C594.7 504.7 640.3 509.3 686 507C731.7 504.7 777.3 495.3 823 494.2C868.7 493 914.3 500 937.2 503.5L960 507L960 541L937.2 541C914.3 541 868.7 541 823 541C777.3 541 731.7 541 686 541C640.3 541 594.7 541 548.8 541C503 541 457 541 411.2 541C365.3 541 319.7 541 274 541C228.3 541 182.7 541 137 541C91.3 541 45.7 541 22.8 541L0 541Z" fill="#f5b059"></path><path d="M0 506L22.8 509.2C45.7 512.3 91.3 518.7 137 521.3C182.7 524 228.3 523 274 521.7C319.7 520.3 365.3 518.7 411.2 518.3C457 518 503 519 548.8 520.8C594.7 522.7 640.3 525.3 686 523.3C731.7 521.3 777.3 514.7 823 512C868.7 509.3 914.3 510.7 937.2 511.3L960 512L960 541L937.2 541C914.3 541 868.7 541 823 541C777.3 541 731.7 541 686 541C640.3 541 594.7 541 548.8 541C503 541 457 541 411.2 541C365.3 541 319.7 541 274 541C228.3 541 182.7 541 137 541C91.3 541 45.7 541 22.8 541L0 541Z" fill="#f19c37"></path></svg>